Griffith_Gothic-Bold_Italic.ufo
<glyph name="quotedbl" format="1">
  <advance width="386"/>
  <unicode hex="0022"/>
  <outline>
    <contour>
      <point x="436" y="720" type="line"/>
      <point x="347" y="473" type="line"/>
      <point x="288" y="473" type="line"/>
      <point x="322" y="720" type="line"/>
    </contour>
    <contour>
      <point x="258" y="720" type="line"/>
      <point x="169" y="473" type="line"/>
      <point x="110" y="473" type="line"/>
      <point x="144" y="720" type="line"/>
    </contour>
  </outline>
</glyph>
<glyph name="numbersign" format="1">
  <advance width="629"/>
  <unicode hex="0023"/>
  <outline>
    <contour>
      <point x="662" y="540" type="line"/>
      <point x="640" y="453" type="line"/>
      <point x="521" y="453" type="line"/>
      <point x="457" y="267" type="line"/>
      <point x="580" y="267" type="line"/>
      <point x="558" y="180" type="line"/>
      <point x="426" y="180" type="line"/>
      <point x="365" y="0" type="line"/>
      <point x="304" y="0" type="line"/>
      <point x="366" y="180" type="line"/>
      <point x="192" y="180" type="line"/>
      <point x="129" y="0" type="line"/>
      <point x="69" y="0" type="line"/>
      <point x="131" y="180" type="line"/>
      <point x="20" y="180" type="line"/>
      <point x="42" y="267" type="line"/>
      <point x="161" y="267" type="line"/>
      <point x="225" y="453" type="line"/>
      <point x="102" y="453" type="line"/>
      <point x="124" y="540" type="line"/>
      <point x="256" y="540" type="line"/>
      <point x="318" y="720" type="line"/>
      <point x="378" y="720" type="line"/>
      <point x="316" y="540" type="line"/>
      <point x="490" y="540" type="line"/>
      <point x="553" y="720" type="line"/>
      <point x="613" y="720" type="line"/>
      <point x="551" y="540" type="line"/>
    </contour>
    <contour>
      <point x="463" y="455" type="line"/>
      <point x="285" y="455" type="line"/>
      <point x="219" y="265" type="line"/>
      <point x="397" y="265" type="line"/>
    </contour>
  </outline>
</glyph>
<glyph name="dollar" format="1">
  <advance width="567"/>
  <unicode hex="0024"/>
  <outline>
    <contour>
      <point x="589" y="616" type="curve"/>
      <point x="528" y="554" type="line"/>
      <point x="495" y="596"/>
      <point x="455" y="626"/>
      <point x="406" y="638" type="curve"/>
      <point x="347" y="402" type="line"/>
      <point x="466" y="345"/>
      <point x="514" y="293"/>
      <point x="514" y="207" type="curve" smooth="yes"/>
      <point x="514" y="82"/>
      <point x="412" y="0"/>
      <point x="262" y="0" type="curve" smooth="yes"/>
      <point x="259" y="0"/>
      <point x="256" y="0"/>
      <point x="253" y="0" type="curve"/>
      <point x="229" y="-95" type="line"/>
      <point x="165" y="-95" type="line"/>
      <point x="191" y="6" type="line"/>
      <point x="108" y="23"/>
      <point x="42" y="65"/>
      <point x="-1" y="121" type="curve"/>
      <point x="61" y="183" type="line"/>
      <point x="103" y="128"/>
      <point x="149" y="92"/>
      <point x="214" y="80" type="curve"/>
      <point x="280" y="341" type="line"/>
      <point x="180" y="389"/>
      <point x="123" y="435"/>
      <point x="123" y="524" type="curve" smooth="yes"/>
      <point x="123" y="646"/>
      <point x="225" y="720"/>
      <point x="356" y="720" type="curve" smooth="yes"/>
      <point x="360" y="720"/>
      <point x="364" y="720"/>
      <point x="367" y="720" type="curve"/>
      <point x="378" y="762" type="line"/>
      <point x="442" y="762" type="line"/>
      <point x="430" y="713" type="line"/>
      <point x="495" y="699"/>
      <point x="547" y="665"/>
    </contour>
    <contour>
      <point x="356" y="645" type="line"/>
      <point x="355" y="645"/>
      <point x="353" y="645"/>
      <point x="352" y="645" type="curve" smooth="yes"/>
      <point x="269" y="645"/>
      <point x="219" y="602"/>
      <point x="219" y="532" type="curve" smooth="yes"/>
      <point x="219" y="487"/>
      <point x="241" y="458"/>
      <point x="301" y="425" type="curve"/>
    </contour>
    <contour>
      <point x="418" y="199" type="curve" smooth="yes"/>
      <point x="418" y="247"/>
      <point x="393" y="281"/>
      <point x="326" y="318" type="curve"/>
      <point x="266" y="75" type="line"/>
      <point x="266" y="75"/>
      <point x="267" y="75"/>
      <point x="268" y="75" type="curve" smooth="yes"/>
      <point x="369" y="75"/>
      <point x="418" y="128"/>
    </contour>
  </outline>
</glyph>
<glyph name="ampersand" format="1">
  <advance width="693"/>
  <unicode hex="0026"/>
  <outline>
    <contour>
      <point x="681" y="368" type="line"/>
      <point x="622" y="276"/>
      <point x="558" y="193"/>
      <point x="493" y="131" type="curve"/>
      <point x="527" y="80"/>
      <point x="552" y="73"/>
      <point x="592" y="73" type="curve" smooth="yes"/>
      <point x="610" y="73"/>
      <point x="622" y="75"/>
      <point x="641" y="79" type="curve"/>
      <point x="620" y="-1" type="line"/>
      <point x="599" y="-5"/>
      <point x="585" y="-6"/>
      <point x="564" y="-6" type="curve" smooth="yes"/>
      <point x="498" y="-6"/>
      <point x="459" y="11"/>
      <point x="418" y="70" type="curve"/>
      <point x="346" y="18"/>
      <point x="283" y="-10"/>
      <point x="205" y="-10" type="curve" smooth="yes"/>
      <point x="92" y="-10"/>
      <point x="15" y="51"/>
      <point x="15" y="161" type="curve" smooth="yes"/>
      <point x="15" y="274"/>
      <point x="90" y="362"/>
      <point x="242" y="424" type="curve"/>
      <point x="226" y="469"/>
      <point x="219" y="503"/>
      <point x="219" y="543" type="curve" smooth="yes"/>
      <point x="219" y="649"/>
      <point x="299" y="732"/>
      <point x="409" y="732" type="curve" smooth="yes"/>
      <point x="502" y="732"/>
      <point x="551" y="681"/>
      <point x="551" y="606" type="curve" smooth="yes"/>
      <point x="551" y="517"/>
      <point x="480" y="453"/>
      <point x="354" y="404" type="curve"/>
      <point x="392" y="311"/>
      <point x="420" y="251"/>
      <point x="452" y="195" type="curve"/>
      <point x="507" y="252"/>
      <point x="560" y="328"/>
      <point x="607" y="407" type="curve"/>
    </contour>
    <contour>
      <point x="466" y="600" type="curve" smooth="yes"/>
      <point x="466" y="640"/>
      <point x="444" y="667"/>
      <point x="404" y="667" type="curve" smooth="yes"/>
      <point x="346" y="667"/>
      <point x="311" y="614"/>
      <point x="311" y="553" type="curve" smooth="yes"/>
      <point x="311" y="519"/>
      <point x="315" y="490"/>
      <point x="327" y="456" type="curve"/>
      <point x="424" y="495"/>
      <point x="466" y="537"/>
    </contour>
    <contour>
      <point x="379" y="128" type="curve"/>
      <point x="342" y="192"/>
      <point x="310" y="262"/>
      <point x="267" y="365" type="curve"/>
      <point x="167" y="321"/>
      <point x="122" y="255"/>
      <point x="122" y="181" type="curve" smooth="yes"/>
      <point x="122" y="111"/>
      <point x="167" y="68"/>
      <point x="239" y="68" type="curve" smooth="yes"/>
      <point x="286" y="68"/>
      <point x="333" y="90"/>
    </contour>
  </outline>
</glyph>
<glyph name="comma" format="1">
  <advance width="210"/>
  <unicode hex="002C"/>
  <outline>
    <contour>
      <point x="148" y="130" type="line"/>
      <point x="0" y="-117" type="line"/>
      <point x="-65" y="-117" type="line"/>
      <point x="27" y="130" type="line"/>
    </contour>
  </outline>
</glyph>
<glyph name="four" format="1">
  <advance width="592"/>
  <unicode hex="0034"/>
  <outline>
    <contour>
      <point x="582" y="720" type="line"/>
      <point x="466" y="257" type="line"/>
      <point x="561" y="257" type="line"/>
      <point x="544" y="191" type="line"/>
      <point x="450" y="191" type="line"/>
      <point x="402" y="0" type="line"/>
      <point x="296" y="0" type="line"/>
      <point x="343" y="191" type="line"/>
      <point x="15" y="191" type="line"/>
      <point x="39" y="285" type="line"/>
      <point x="435" y="720" type="line"/>
    </contour>
    <contour>
      <point x="452" y="626" type="line"/>
      <point x="441" y="626" type="line"/>
      <point x="113" y="268" type="line"/>
      <point x="111" y="257" type="line"/>
      <point x="360" y="257" type="line"/>
    </contour>
  </outline>
</glyph>
<glyph name="eight" format="1">
  <advance width="590"/>
  <unicode hex="0038"/>
  <outline>
    <contour>
      <point x="592" y="560" type="curve" smooth="yes"/>
      <point x="592" y="463"/>
      <point x="514" y="399"/>
      <point x="436" y="377" type="curve"/>
      <point x="434" y="371" type="line"/>
      <point x="494" y="344"/>
      <point x="541" y="293"/>
      <point x="541" y="214" type="curve" smooth="yes"/>
      <point x="541" y="86"/>
      <point x="429" y="-11"/>
      <point x="268" y="-11" type="curve" smooth="yes"/>
      <point x="120" y="-11"/>
      <point x="30" y="64"/>
      <point x="30" y="178" type="curve" smooth="yes"/>
      <point x="30" y="292"/>
      <point x="116" y="366"/>
      <point x="214" y="392" type="curve"/>
      <point x="215" y="398" type="line"/>
      <point x="159" y="431"/>
      <point x="128" y="472"/>
      <point x="128" y="538" type="curve" smooth="yes"/>
      <point x="128" y="646"/>
      <point x="228" y="732"/>
      <point x="372" y="732" type="curve" smooth="yes"/>
      <point x="509" y="732"/>
      <point x="592" y="665"/>
    </contour>
    <contour>
      <point x="483" y="552" type="curve" smooth="yes"/>
      <point x="483" y="615"/>
      <point x="441" y="655"/>
      <point x="368" y="655" type="curve" smooth="yes"/>
      <point x="286" y="655"/>
      <point x="233" y="595"/>
      <point x="233" y="525" type="curve" smooth="yes"/>
      <point x="233" y="457"/>
      <point x="280" y="414"/>
      <point x="345" y="414" type="curve" smooth="yes"/>
      <point x="428" y="414"/>
      <point x="483" y="483"/>
    </contour>
    <contour>
      <point x="434" y="222" type="curve" smooth="yes"/>
      <point x="434" y="296"/>
      <point x="382" y="349"/>
      <point x="302" y="349" type="curve" smooth="yes"/>
      <point x="211" y="349"/>
      <point x="139" y="275"/>
      <point x="139" y="191" type="curve" smooth="yes"/>
      <point x="139" y="116"/>
      <point x="187" y="66"/>
      <point x="273" y="66" type="curve" smooth="yes"/>
      <point x="368" y="66"/>
      <point x="434" y="136"/>
    </contour>
  </outline>
</glyph>
<glyph name="colon" format="1">
  <advance width="226"/>
  <unicode hex="003A"/>
  <outline>
    <contour>
      <point x="230" y="462" type="curve" smooth="yes"/>
      <point x="230" y="423"/>
      <point x="202" y="394"/>
      <point x="163" y="394" type="curve" smooth="yes"/>
      <point x="124" y="394"/>
      <point x="95" y="423"/>
      <point x="95" y="462" type="curve" smooth="yes"/>
      <point x="95" y="501"/>
      <point x="124" y="530"/>
      <point x="163" y="530" type="curve" smooth="yes"/>
      <point x="202" y="530"/>
      <point x="230" y="501"/>
    </contour>
    <contour>
      <point x="132" y="61" type="curve" smooth="yes"/>
      <point x="132" y="22"/>
      <point x="103" y="-7"/>
      <point x="65" y="-7" type="curve" smooth="yes"/>
      <point x="26" y="-7"/>
      <point x="-3" y="22"/>
      <point x="-3" y="61" type="curve" smooth="yes"/>
      <point x="-3" y="99"/>
      <point x="26" y="128"/>
      <point x="65" y="128" type="curve" smooth="yes"/>
      <point x="103" y="128"/>
      <point x="132" y="99"/>
    </contour>
  </outline>
</glyph>
<glyph name="equal" format="1">
  <advance width="600"/>
  <unicode hex="003D"/>
  <outline>
    <contour>
      <point x="566" y="432" type="line"/>
      <point x="80" y="432" type="line"/>
      <point x="80" y="526" type="line"/>
      <point x="566" y="526" type="line"/>
    </contour>
    <contour>
      <point x="566" y="184" type="line"/>
      <point x="80" y="184" type="line"/>
      <point x="80" y="278" type="line"/>
      <point x="566" y="278" type="line"/>
    </contour>
  </outline>
</glyph>
<glyph name="greater" format="1">
  <advance width="600"/>
  <unicode hex="003E"/>
  <outline>
    <contour>
      <point x="579" y="310" type="line"/>
      <point x="75" y="89" type="line"/>
      <point x="75" y="186" type="line"/>
      <point x="474" y="355" type="line"/>
      <point x="75" y="524" type="line"/>
      <point x="75" y="621" type="line"/>
      <point x="579" y="400" type="line"/>
    </contour>
  </outline>
</glyph>
<glyph name="question" format="1">
  <advance width="469"/>
  <unicode hex="003F"/>
  <outline>
    <contour>
      <point x="510" y="587" type="curve" smooth="yes"/>
      <point x="510" y="491"/>
      <point x="453" y="436"/>
      <point x="355" y="374" type="curve" smooth="yes"/>
      <point x="282" y="328"/>
      <point x="258" y="301"/>
      <point x="236" y="221" type="curve"/>
      <point x="164" y="221" type="line"/>
      <point x="181" y="338"/>
      <point x="210" y="378"/>
      <point x="297" y="433" type="curve" smooth="yes"/>
      <point x="359" y="473"/>
      <point x="401" y="516"/>
      <point x="401" y="573" type="curve" smooth="yes"/>
      <point x="401" y="623"/>
      <point x="366" y="647"/>
      <point x="318" y="647" type="curve" smooth="yes"/>
      <point x="267" y="647"/>
      <point x="224" y="618"/>
      <point x="175" y="548" type="curve"/>
      <point x="102" y="594" type="line"/>
      <point x="162" y="686"/>
      <point x="238" y="732"/>
      <point x="329" y="732" type="curve" smooth="yes"/>
      <point x="439" y="732"/>
      <point x="510" y="675"/>
    </contour>
    <contour>
      <point x="230" y="58" type="curve" smooth="yes"/>
      <point x="230" y="21"/>
      <point x="202" y="-7"/>
      <point x="165" y="-7" type="curve" smooth="yes"/>
      <point x="127" y="-7"/>
      <point x="99" y="21"/>
      <point x="99" y="58" type="curve" smooth="yes"/>
      <point x="99" y="96"/>
      <point x="127" y="124"/>
      <point x="165" y="124" type="curve" smooth="yes"/>
      <point x="202" y="124"/>
      <point x="230" y="96"/>
    </contour>
  </outline>
</glyph>
<glyph name="A" format="1">
  <advance width="672"/>
  <unicode hex="0041"/>
  <outline>
    <contour>
      <point x="585" y="0" type="line"/>
      <point x="472" y="0" type="line"/>
      <point x="461" y="178" type="line"/>
      <point x="173" y="178" type="line"/>
      <point x="74" y="0" type="line"/>
      <point x="-43" y="0" type="line"/>
      <point x="376" y="723" type="line"/>
      <point x="527" y="723" type="line"/>
    </contour>
    <contour>
      <point x="460" y="255" type="line"/>
      <point x="435" y="637" type="line"/>
      <point x="428" y="637" type="line"/>
      <point x="212" y="255" type="line"/>
    </contour>
  </outline>
</glyph>
<glyph name="B" format="1">
  <advance width="613"/>
  <unicode hex="0042"/>
  <outline>
    <contour>
      <point x="625" y="567" type="curve" smooth="yes"/>
      <point x="625" y="470"/>
      <point x="545" y="406"/>
      <point x="449" y="382" type="curve"/>
      <point x="449" y="378" type="line"/>
      <point x="518" y="356"/>
      <point x="567" y="311"/>
      <point x="567" y="232" type="curve" smooth="yes"/>
      <point x="567" y="89"/>
      <point x="449" y="0"/>
      <point x="267" y="0" type="curve" smooth="yes"/>
      <point x="6" y="0" type="line"/>
      <point x="185" y="720" type="line"/>
      <point x="414" y="720" type="line" smooth="yes"/>
      <point x="555" y="720"/>
      <point x="625" y="662"/>
    </contour>
    <contour>
      <point x="512" y="549" type="curve" smooth="yes"/>
      <point x="512" y="606"/>
      <point x="472" y="637"/>
      <point x="393" y="637" type="curve" smooth="yes"/>
      <point x="275" y="637" type="line"/>
      <point x="221" y="420" type="line"/>
      <point x="342" y="420" type="line" smooth="yes"/>
      <point x="444" y="420"/>
      <point x="512" y="472"/>
    </contour>
    <contour>
      <point x="461" y="236" type="curve" smooth="yes"/>
      <point x="461" y="298"/>
      <point x="419" y="344"/>
      <point x="321" y="344" type="curve" smooth="yes"/>
      <point x="202" y="344" type="line"/>
      <point x="137" y="83" type="line"/>
      <point x="263" y="83" type="line" smooth="yes"/>
      <point x="383" y="83"/>
      <point x="461" y="135"/>
    </contour>
  </outline>
</glyph>
<glyph name="E" format="1">
  <advance width="555"/>
  <unicode hex="0045"/>
  <outline>
    <contour>
      <point x="623" y="720" type="line"/>
      <point x="601" y="631" type="line"/>
      <point x="276" y="631" type="line"/>
      <point x="222" y="417" type="line"/>
      <point x="480" y="417" type="line"/>
      <point x="459" y="332" type="line"/>
      <point x="202" y="332" type="line"/>
      <point x="141" y="89" type="line"/>
      <point x="478" y="89" type="line"/>
      <point x="455" y="0" type="line"/>
      <point x="6" y="0" type="line"/>
      <point x="185" y="720" type="line"/>
    </contour>
  </outline>
</glyph>
<glyph name="F" format="1">
  <advance width="525"/>
  <unicode hex="0046"/>
  <outline>
    <contour>
      <point x="617" y="720" type="line"/>
      <point x="594" y="631" type="line"/>
      <point x="277" y="631" type="line"/>
      <point x="220" y="400" type="line"/>
      <point x="462" y="400" type="line"/>
      <point x="440" y="313" type="line"/>
      <point x="198" y="313" type="line"/>
      <point x="120" y="0" type="line"/>
      <point x="6" y="0" type="line"/>
      <point x="185" y="720" type="line"/>
    </contour>
  </outline>
</glyph>
<glyph name="G" format="1">
  <advance width="629"/>
  <unicode hex="0047"/>
  <outline>
    <contour>
      <point x="613" y="527" type="curve"/>
      <point x="502" y="503" type="line"/>
      <point x="496" y="593"/>
      <point x="470" y="644"/>
      <point x="397" y="644" type="curve" smooth="yes"/>
      <point x="301" y="644"/>
      <point x="232" y="534"/>
      <point x="194" y="392" type="curve" smooth="yes"/>
      <point x="176" y="327"/>
      <point x="168" y="273"/>
      <point x="168" y="228" type="curve" smooth="yes"/>
      <point x="168" y="226" type="line" smooth="yes"/>
      <point x="168" y="141"/>
      <point x="205" y="76"/>
      <point x="277" y="76" type="curve" smooth="yes"/>
      <point x="351" y="76"/>
      <point x="413" y="146"/>
      <point x="461" y="289" type="curve"/>
      <point x="322" y="289" type="line"/>
      <point x="335" y="341" type="line"/>
      <point x="595" y="341" type="line"/>
      <point x="509" y="-1" type="line"/>
      <point x="459" y="-1" type="line"/>
      <point x="491" y="176" type="line"/>
      <point x="486" y="176" type="line"/>
      <point x="426" y="58"/>
      <point x="362" y="-12"/>
      <point x="260" y="-12" type="curve" smooth="yes"/>
      <point x="133" y="-12"/>
      <point x="54" y="78"/>
      <point x="54" y="228" type="curve" smooth="yes"/>
      <point x="54" y="232" type="line" smooth="yes"/>
      <point x="54" y="273"/>
      <point x="60" y="323"/>
      <point x="71" y="372" type="curve" smooth="yes"/>
      <point x="118" y="585"/>
      <point x="232" y="732"/>
      <point x="407" y="732" type="curve" smooth="yes"/>
      <point x="548" y="732"/>
      <point x="608" y="646"/>
    </contour>
  </outline>
</glyph>
<glyph name="H" format="1">
  <advance width="633"/>
  <unicode hex="0048"/>
  <outline>
    <contour>
      <point x="676" y="720" type="line"/>
      <point x="497" y="0" type="line"/>
      <point x="382" y="0" type="line"/>
      <point x="464" y="326" type="line"/>
      <point x="202" y="326" type="line"/>
      <point x="120" y="0" type="line"/>
      <point x="6" y="0" type="line"/>
      <point x="185" y="720" type="line"/>
      <point x="300" y="720" type="line"/>
      <point x="226" y="423" type="line"/>
      <point x="488" y="423" type="line"/>
      <point x="562" y="720" type="line"/>
    </contour>
  </outline>
</glyph>
<glyph name="J" format="1">
  <advance width="509"/>
  <unicode hex="004A"/>
  <outline>
    <contour>
      <point x="556" y="720" type="line"/>
      <point x="430" y="211" type="line" smooth="yes"/>
      <point x="393" y="62"/>
      <point x="313" y="-12"/>
      <point x="181" y="-12" type="curve" smooth="yes"/>
      <point x="69" y="-12"/>
      <point x="-1" y="43"/>
      <point x="-1" y="137" type="curve" smooth="yes"/>
      <point x="-1" y="157"/>
      <point x="1" y="176"/>
      <point x="6" y="199" type="curve"/>
      <point x="118" y="223" type="line"/>
      <point x="112" y="198"/>
      <point x="109" y="177"/>
      <point x="109" y="158" type="curve" smooth="yes"/>
      <point x="109" y="104"/>
      <point x="136" y="79"/>
      <point x="190" y="79" type="curve" smooth="yes"/>
      <point x="251" y="79"/>
      <point x="293" y="123"/>
      <point x="317" y="218" type="curve" smooth="yes"/>
      <point x="442" y="720" type="line"/>
    </contour>
  </outline>
</glyph>
<glyph name="M" format="1">
  <advance width="853"/>
  <unicode hex="004D"/>
  <outline>
    <contour>
      <point x="895" y="720" type="line"/>
      <point x="716" y="0" type="line"/>
      <point x="609" y="0" type="line"/>
      <point x="759" y="601" type="line"/>
      <point x="750" y="601" type="line"/>
      <point x="417" y="0" type="line"/>
      <point x="300" y="0" type="line"/>
      <point x="267" y="601" type="line"/>
      <point x="259" y="601" type="line"/>
      <point x="109" y="0" type="line"/>
      <point x="6" y="0" type="line"/>
      <point x="185" y="720" type="line"/>
      <point x="362" y="720" type="line"/>
      <point x="391" y="146" type="line"/>
      <point x="398" y="146" type="line"/>
      <point x="714" y="720" type="line"/>
    </contour>
  </outline>
</glyph>
<glyph name="P" format="1">
  <advance width="577"/>
  <unicode hex="0050"/>
  <outline>
    <contour>
      <point x="609" y="543" type="curve" smooth="yes"/>
      <point x="609" y="390"/>
      <point x="487" y="291"/>
      <point x="309" y="291" type="curve" smooth="yes"/>
      <point x="193" y="291" type="line"/>
      <point x="120" y="0" type="line"/>
      <point x="6" y="0" type="line"/>
      <point x="185" y="720" type="line"/>
      <point x="387" y="720" type="line" smooth="yes"/>
      <point x="531" y="720"/>
      <point x="609" y="658"/>
    </contour>
    <contour>
      <point x="495" y="533" type="curve" smooth="yes"/>
      <point x="495" y="601"/>
      <point x="454" y="637"/>
      <point x="365" y="637" type="curve" smooth="yes"/>
      <point x="275" y="637" type="line"/>
      <point x="210" y="376" type="line"/>
      <point x="308" y="376" type="line" smooth="yes"/>
      <point x="420" y="376"/>
      <point x="495" y="435"/>
    </contour>
  </outline>
</glyph>
<glyph name="Q" format="1">
  <advance width="627"/>
  <unicode hex="0051"/>
  <outline>
    <contour>
      <point x="622" y="488" type="line" smooth="yes"/>
      <point x="622" y="444"/>
      <point x="615" y="390"/>
      <point x="604" y="342" type="curve" smooth="yes"/>
      <point x="575" y="213"/>
      <point x="520" y="108"/>
      <point x="442" y="47" type="curve"/>
      <point x="462" y="6" type="line" smooth="yes"/>
      <point x="478" y="-27"/>
      <point x="499" y="-40"/>
      <point x="534" y="-40" type="curve" smooth="yes"/>
      <point x="548" y="-40"/>
      <point x="559" y="-38"/>
      <point x="573" y="-34" type="curve"/>
      <point x="555" y="-106" type="line"/>
      <point x="541" y="-110"/>
      <point x="529" y="-111"/>
      <point x="515" y="-111" type="curve" smooth="yes"/>
      <point x="455" y="-111"/>
      <point x="418" y="-95"/>
      <point x="394" y="-36" type="curve" smooth="yes"/>
      <point x="376" y="8" type="line"/>
      <point x="344" y="-5"/>
      <point x="308" y="-12"/>
      <point x="271" y="-12" type="curve" smooth="yes"/>
      <point x="136" y="-12"/>
      <point x="54" y="78"/>
      <point x="54" y="228" type="curve" smooth="yes"/>
      <point x="54" y="232" type="line" smooth="yes"/>
      <point x="54" y="276"/>
      <point x="61" y="330"/>
      <point x="72" y="378" type="curve" smooth="yes"/>
      <point x="119" y="588"/>
      <point x="232" y="732"/>
      <point x="405" y="732" type="curve" smooth="yes"/>
      <point x="540" y="732"/>
      <point x="622" y="642"/>
      <point x="622" y="492" type="curve" smooth="yes"/>
    </contour>
    <contour>
      <point x="507" y="491" type="curve" smooth="yes"/>
      <point x="507" y="494" type="line" smooth="yes"/>
      <point x="507" y="578"/>
      <point x="472" y="644"/>
      <point x="395" y="644" type="curve" smooth="yes"/>
      <point x="304" y="644"/>
      <point x="233" y="538"/>
      <point x="193" y="392" type="curve" smooth="yes"/>
      <point x="176" y="328"/>
      <point x="166" y="266"/>
      <point x="166" y="221" type="curve" smooth="yes"/>
      <point x="166" y="218" type="line" smooth="yes"/>
      <point x="166" y="133"/>
      <point x="201" y="67"/>
      <point x="278" y="67" type="curve" smooth="yes"/>
      <point x="304" y="67"/>
      <point x="328" y="74"/>
      <point x="349" y="88" type="curve"/>
      <point x="299" y="209" type="line"/>
      <point x="348" y="233" type="line"/>
      <point x="395" y="130" type="line"/>
      <point x="431" y="174"/>
      <point x="458" y="240"/>
      <point x="480" y="319" type="curve" smooth="yes"/>
      <point x="498" y="384"/>
      <point x="507" y="446"/>
    </contour>
  </outline>
</glyph>
<glyph name="T" format="1">
  <advance width="572"/>
  <unicode hex="0054"/>
  <outline>
    <contour>
      <point x="666" y="720" type="line"/>
      <point x="643" y="625" type="line"/>
      <point x="433" y="625" type="line"/>
      <point x="277" y="0" type="line"/>
      <point x="163" y="0" type="line"/>
      <point x="319" y="625" type="line"/>
      <point x="109" y="625" type="line"/>
      <point x="133" y="720" type="line"/>
    </contour>
  </outline>
</glyph>
<glyph name="U" format="1">
  <advance width="625"/>
  <unicode hex="0055"/>
  <outline>
    <contour>
      <point x="673" y="720" type="line"/>
      <point x="551" y="234" type="line" smooth="yes"/>
      <point x="508" y="62"/>
      <point x="409" y="-12"/>
      <point x="278" y="-12" type="curve" smooth="yes"/>
      <point x="142" y="-12"/>
      <point x="57" y="50"/>
      <point x="57" y="175" type="curve" smooth="yes"/>
      <point x="57" y="210"/>
      <point x="62" y="247"/>
      <point x="70" y="280" type="curve" smooth="yes"/>
      <point x="179" y="720" type="line"/>
      <point x="294" y="720" type="line"/>
      <point x="184" y="277" type="line" smooth="yes"/>
      <point x="176" y="245"/>
      <point x="171" y="214"/>
      <point x="171" y="189" type="curve" smooth="yes"/>
      <point x="171" y="119"/>
      <point x="211" y="79"/>
      <point x="285" y="79" type="curve" smooth="yes"/>
      <point x="359" y="79"/>
      <point x="417" y="128"/>
      <point x="446" y="244" type="curve" smooth="yes"/>
      <point x="565" y="720" type="line"/>
    </contour>
  </outline>
</glyph>
<glyph name="V" format="1">
  <advance width="634"/>
  <unicode hex="0056"/>
  <outline>
    <contour>
      <point x="726" y="720" type="line"/>
      <point x="314" y="-6" type="line"/>
      <point x="186" y="-6" type="line"/>
      <point x="136" y="720" type="line"/>
      <point x="250" y="720" type="line"/>
      <point x="275" y="115" type="line"/>
      <point x="281" y="115" type="line"/>
      <point x="607" y="720" type="line"/>
    </contour>
  </outline>
</glyph>
<glyph name="W" format="1">
  <advance width="980"/>
  <unicode hex="0057"/>
  <outline>
    <contour>
      <point x="1052" y="720" type="line"/>
      <point x="687" y="-5" type="line"/>
      <point x="562" y="-5" type="line"/>
      <point x="564" y="578" type="line"/>
      <point x="556" y="578" type="line"/>
      <point x="268" y="-5" type="line"/>
      <point x="143" y="-5" type="line"/>
      <point x="140" y="720" type="line"/>
      <point x="254" y="720" type="line"/>
      <point x="239" y="130" type="line"/>
      <point x="245" y="130" type="line"/>
      <point x="529" y="720" type="line"/>
      <point x="657" y="720" type="line"/>
      <point x="650" y="130" type="line"/>
      <point x="656" y="130" type="line"/>
      <point x="933" y="720" type="line"/>
    </contour>
  </outline>
</glyph>
<glyph name="X" format="1">
  <advance width="630"/>
  <unicode hex="0058"/>
  <outline>
    <contour>
      <point x="708" y="720" type="line"/>
      <point x="402" y="371" type="line"/>
      <point x="542" y="0" type="line"/>
      <point x="420" y="0" type="line"/>
      <point x="318" y="281" type="line"/>
      <point x="78" y="0" type="line"/>
      <point x="-43" y="0" type="line"/>
      <point x="283" y="371" type="line"/>
      <point x="151" y="720" type="line"/>
      <point x="273" y="720" type="line"/>
      <point x="366" y="461" type="line"/>
      <point x="587" y="720" type="line"/>
    </contour>
  </outline>
</glyph>
<glyph name="Y" format="1">
  <advance width="625"/>
  <unicode hex="0059"/>
  <outline>
    <contour>
      <point x="727" y="720" type="line"/>
      <point x="375" y="281" type="line"/>
      <point x="305" y="0" type="line"/>
      <point x="190" y="0" type="line"/>
      <point x="260" y="279" type="line"/>
      <point x="127" y="720" type="line"/>
      <point x="249" y="720" type="line"/>
      <point x="345" y="380" type="line"/>
      <point x="611" y="720" type="line"/>
    </contour>
  </outline>
</glyph>
<glyph name="e" format="1">
  <advance width="474"/>
  <unicode hex="0065"/>
  <outline>
    <contour>
      <point x="452" y="362" type="curve" smooth="yes"/>
      <point x="452" y="325"/>
      <point x="445" y="281"/>
      <point x="433" y="239" type="curve"/>
      <point x="131" y="239" type="line"/>
      <point x="128" y="220"/>
      <point x="126" y="201"/>
      <point x="126" y="182" type="curve" smooth="yes"/>
      <point x="126" y="180" type="line" smooth="yes"/>
      <point x="126" y="105"/>
      <point x="162" y="66"/>
      <point x="225" y="66" type="curve" smooth="yes"/>
      <point x="271" y="66"/>
      <point x="317" y="85"/>
      <point x="371" y="117" type="curve"/>
      <point x="388" y="48" type="line"/>
      <point x="328" y="12"/>
      <point x="278" y="-9"/>
      <point x="205" y="-9" type="curve" smooth="yes"/>
      <point x="90" y="-9"/>
      <point x="27" y="57"/>
      <point x="27" y="174" type="curve" smooth="yes"/>
      <point x="27" y="176" type="line" smooth="yes"/>
      <point x="27" y="209"/>
      <point x="33" y="249"/>
      <point x="42" y="286" type="curve" smooth="yes"/>
      <point x="80" y="437"/>
      <point x="174" y="534"/>
      <point x="295" y="534" type="curve" smooth="yes"/>
      <point x="409" y="534"/>
      <point x="452" y="456"/>
    </contour>
    <contour>
      <point x="356" y="367" type="curve" smooth="yes"/>
      <point x="356" y="424"/>
      <point x="340" y="469"/>
      <point x="288" y="469" type="curve" smooth="yes"/>
      <point x="226" y="469"/>
      <point x="167" y="391"/>
      <point x="141" y="289" type="curve"/>
      <point x="345" y="289" type="line"/>
      <point x="352" y="319"/>
      <point x="356" y="345"/>
    </contour>
  </outline>
</glyph>
<glyph name="f" format="1">
  <advance width="354"/>
  <unicode hex="0066"/>
  <outline>
    <contour>
      <point x="490" y="740" type="curve"/>
      <point x="471" y="664" type="line"/>
      <point x="450" y="675"/>
      <point x="425" y="685"/>
      <point x="389" y="685" type="curve" smooth="yes"/>
      <point x="346" y="685"/>
      <point x="318" y="663"/>
      <point x="303" y="605" type="curve" smooth="yes"/>
      <point x="282" y="521" type="line"/>
      <point x="410" y="521" type="line"/>
      <point x="391" y="447" type="line"/>
      <point x="264" y="447" type="line"/>
      <point x="107" y="-188" type="line"/>
      <point x="1" y="-188" type="line"/>
      <point x="159" y="447" type="line"/>
      <point x="60" y="447" type="line"/>
      <point x="78" y="521" type="line"/>
      <point x="177" y="521" type="line"/>
      <point x="201" y="616" type="line" smooth="yes"/>
      <point x="227" y="719"/>
      <point x="281" y="759"/>
      <point x="380" y="759" type="curve" smooth="yes"/>
      <point x="426" y="759"/>
      <point x="460" y="751"/>
    </contour>
  </outline>
</glyph>
<glyph name="g" format="1">
  <advance width="526"/>
  <unicode hex="0067"/>
  <outline>
    <contour>
      <point x="528" y="510" type="line"/>
      <point x="412" y="47" type="line" smooth="yes"/>
      <point x="369" y="-125"/>
      <point x="292" y="-190"/>
      <point x="128" y="-190" type="curve" smooth="yes"/>
      <point x="65" y="-190"/>
      <point x="16" y="-180"/>
      <point x="-20" y="-166" type="curve"/>
      <point x="-1" y="-89" type="line"/>
      <point x="26" y="-89" type="line"/>
      <point x="40" y="-110"/>
      <point x="71" y="-131"/>
      <point x="133" y="-131" type="curve" smooth="yes"/>
      <point x="222" y="-131"/>
      <point x="273" y="-80"/>
      <point x="299" y="24" type="curve" smooth="yes"/>
      <point x="324" y="123" type="line"/>
      <point x="319" y="123" type="line"/>
      <point x="243" y="26"/>
      <point x="194" y="-9"/>
      <point x="138" y="-9" type="curve" smooth="yes"/>
      <point x="61" y="-9"/>
      <point x="25" y="56"/>
      <point x="25" y="146" type="curve" smooth="yes"/>
      <point x="25" y="148" type="line" smooth="yes"/>
      <point x="25" y="352"/>
      <point x="143" y="533"/>
      <point x="260" y="533" type="curve" smooth="yes"/>
      <point x="324" y="533"/>
      <point x="353" y="499"/>
      <point x="393" y="422" type="curve"/>
      <point x="399" y="422" type="line"/>
      <point x="426" y="533" type="line"/>
    </contour>
    <contour>
      <point x="375" y="339" type="curve" smooth="yes"/>
      <point x="375" y="407"/>
      <point x="340" y="465"/>
      <point x="292" y="465" type="curve" smooth="yes"/>
      <point x="213" y="465"/>
      <point x="132" y="306"/>
      <point x="132" y="169" type="curve" smooth="yes"/>
      <point x="132" y="108"/>
      <point x="147" y="66"/>
      <point x="197" y="66" type="curve" smooth="yes"/>
      <point x="274" y="66"/>
      <point x="375" y="256"/>
    </contour>
  </outline>
</glyph>
<glyph name="r" format="1">
  <advance width="390"/>
  <unicode hex="0072"/>
  <outline>
    <contour>
      <point x="443" y="533" type="curve"/>
      <point x="415" y="423" type="line"/>
      <point x="332" y="416"/>
      <point x="254" y="362"/>
      <point x="171" y="276" type="curve"/>
      <point x="102" y="0" type="line"/>
      <point x="-5" y="0" type="line"/>
      <point x="122" y="510" type="line"/>
      <point x="235" y="533" type="line"/>
      <point x="185" y="333" type="line"/>
      <point x="190" y="333" type="line"/>
      <point x="290" y="469"/>
      <point x="364" y="531"/>
    </contour>
  </outline>
</glyph>
<glyph name="w" format="1">
  <advance width="783"/>
  <unicode hex="0077"/>
  <outline>
    <contour>
      <point x="826" y="524" type="line"/>
      <point x="540" y="-4" type="line"/>
      <point x="430" y="-4" type="line"/>
      <point x="425" y="394" type="line"/>
      <point x="221" y="-4" type="line"/>
      <point x="109" y="-4" type="line"/>
      <point x="87" y="524" type="line"/>
      <point x="194" y="524" type="line"/>
      <point x="195" y="112" type="line"/>
      <point x="403" y="524" type="line"/>
      <point x="508" y="524" type="line"/>
      <point x="511" y="112" type="line"/>
      <point x="717" y="524" type="line"/>
    </contour>
  </outline>
</glyph>
<glyph name="braceleft" format="1">
  <advance width="412"/>
  <unicode hex="007B"/>
  <outline>
    <contour>
      <point x="496" y="720" type="line"/>
      <point x="484" y="670" type="line"/>
      <point x="413" y="670" type="line" smooth="yes"/>
      <point x="357" y="670"/>
      <point x="327" y="647"/>
      <point x="316" y="603" type="curve" smooth="yes"/>
      <point x="304" y="557"/>
      <point x="311" y="498"/>
      <point x="298" y="447" type="curve" smooth="yes"/>
      <point x="278" y="368"/>
      <point x="230" y="342"/>
      <point x="162" y="323" type="curve"/>
      <point x="160" y="315" type="line"/>
      <point x="215" y="297"/>
      <point x="238" y="275"/>
      <point x="238" y="228" type="curve" smooth="yes"/>
      <point x="238" y="161"/>
      <point x="173" y="74"/>
      <point x="173" y="18" type="curve" smooth="yes"/>
      <point x="173" y="-12"/>
      <point x="194" y="-30"/>
      <point x="238" y="-30" type="curve" smooth="yes"/>
      <point x="309" y="-30" type="line"/>
      <point x="296" y="-80" type="line"/>
      <point x="186" y="-80" type="line" smooth="yes"/>
      <point x="106" y="-80"/>
      <point x="71" y="-50"/>
      <point x="71" y="6" type="curve" smooth="yes"/>
      <point x="71" y="81"/>
      <point x="138" y="161"/>
      <point x="138" y="224" type="curve" smooth="yes"/>
      <point x="138" y="269"/>
      <point x="102" y="295"/>
      <point x="27" y="295" type="curve"/>
      <point x="39" y="345" type="line"/>
      <point x="114" y="345"/>
      <point x="177" y="372"/>
      <point x="195" y="443" type="curve" smooth="yes"/>
      <point x="206" y="489"/>
      <point x="203" y="558"/>
      <point x="215" y="606" type="curve" smooth="yes"/>
      <point x="234" y="683"/>
      <point x="286" y="720"/>
      <point x="379" y="720" type="curve" smooth="yes"/>
    </contour>
  </outline>
</glyph>
<glyph name="cent" format="1">
  <advance width="478"/>
  <unicode hex="00A2"/>
  <outline>
    <contour>
      <point x="533" y="619" type="line"/>
      <point x="160" y="76" type="line"/>
      <point x="175" y="65"/>
      <point x="194" y="60"/>
      <point x="215" y="60" type="curve" smooth="yes"/>
      <point x="258" y="60"/>
      <point x="295" y="88"/>
      <point x="335" y="148" type="curve"/>
      <point x="412" y="121" type="line"/>
      <point x="363" y="40"/>
      <point x="298" y="-10"/>
      <point x="205" y="-10" type="curve" smooth="yes"/>
      <point x="171" y="-10"/>
      <point x="140" y="-3"/>
      <point x="114" y="10" type="curve"/>
      <point x="42" y="-95" type="line"/>
      <point x="-23" y="-95" type="line"/>
      <point x="75" y="38" type="line"/>
      <point x="45" y="69"/>
      <point x="27" y="114"/>
      <point x="27" y="174" type="curve" smooth="yes"/>
      <point x="27" y="176" type="line" smooth="yes"/>
      <point x="27" y="208"/>
      <point x="33" y="248"/>
      <point x="42" y="285" type="curve" smooth="yes"/>
      <point x="78" y="429"/>
      <point x="165" y="534"/>
      <point x="303" y="534" type="curve" smooth="yes"/>
      <point x="343" y="534"/>
      <point x="371" y="527"/>
      <point x="399" y="513" type="curve"/>
      <point x="469" y="619" type="line"/>
    </contour>
    <contour>
      <point x="356" y="447" type="line"/>
      <point x="339" y="458"/>
      <point x="321" y="464"/>
      <point x="296" y="464" type="curve" smooth="yes"/>
      <point x="226" y="464"/>
      <point x="169" y="392"/>
      <point x="140" y="281" type="curve" smooth="yes"/>
      <point x="128" y="237"/>
      <point x="123" y="203"/>
      <point x="123" y="170" type="curve" smooth="yes"/>
      <point x="123" y="168" type="line" smooth="yes"/>
      <point x="123" y="145"/>
      <point x="127" y="125"/>
      <point x="134" y="109" type="curve"/>
    </contour>
  </outline>
</glyph>
<glyph name="sterling" format="1">
  <advance width="589"/>
  <unicode hex="00A3"/>
  <outline>
    <contour>
      <point x="628" y="586" type="curve"/>
      <point x="532" y="546" type="line"/>
      <point x="501" y="615"/>
      <point x="468" y="648"/>
      <point x="399" y="648" type="curve" smooth="yes"/>
      <point x="314" y="648"/>
      <point x="271" y="584"/>
      <point x="271" y="480" type="curve" smooth="yes"/>
      <point x="271" y="460"/>
      <point x="271" y="424"/>
      <point x="271" y="387" type="curve"/>
      <point x="458" y="387" type="line"/>
      <point x="443" y="328" type="line"/>
      <point x="271" y="328" type="line"/>
      <point x="271" y="248"/>
      <point x="256" y="182"/>
      <point x="225" y="129" type="curve"/>
      <point x="261" y="98"/>
      <point x="295" y="82"/>
      <point x="337" y="82" type="curve" smooth="yes"/>
      <point x="392" y="82"/>
      <point x="429" y="110"/>
      <point x="470" y="192" type="curve"/>
      <point x="541" y="165" type="line"/>
      <point x="489" y="42"/>
      <point x="426" y="-6"/>
      <point x="342" y="-6" type="curve" smooth="yes"/>
      <point x="277" y="-6"/>
      <point x="230" y="21"/>
      <point x="174" y="67" type="curve"/>
      <point x="127" y="26"/>
      <point x="63" y="2"/>
      <point x="-19" y="-6" type="curve"/>
      <point x="1" y="74" type="line"/>
      <point x="112" y="100"/>
      <point x="167" y="169"/>
      <point x="167" y="309" type="curve" smooth="yes"/>
      <point x="167" y="315"/>
      <point x="167" y="321"/>
      <point x="167" y="328" type="curve"/>
      <point x="52" y="328" type="line"/>
      <point x="67" y="387" type="line"/>
      <point x="167" y="387" type="line"/>
      <point x="167" y="424"/>
      <point x="167" y="458"/>
      <point x="167" y="472" type="curve" smooth="yes"/>
      <point x="167" y="632"/>
      <point x="249" y="731"/>
      <point x="404" y="731" type="curve" smooth="yes"/>
      <point x="535" y="731"/>
      <point x="590" y="675"/>
    </contour>
  </outline>
</glyph>
<glyph name="copyright" format="1">
  <advance width="828"/>
  <unicode hex="00A9"/>
  <outline>
    <contour>
      <point x="810" y="360" type="curve" smooth="yes"/>
      <point x="810" y="149"/>
      <point x="649" y="-12"/>
      <point x="438" y="-12" type="curve" smooth="yes"/>
      <point x="226" y="-12"/>
      <point x="66" y="148"/>
      <point x="66" y="360" type="curve" smooth="yes"/>
      <point x="66" y="571"/>
      <point x="227" y="732"/>
      <point x="439" y="732" type="curve" smooth="yes"/>
      <point x="650" y="732"/>
      <point x="810" y="572"/>
    </contour>
    <contour>
      <point x="770" y="360" type="curve" smooth="yes"/>
      <point x="770" y="552"/>
      <point x="630" y="697"/>
      <point x="438" y="697" type="curve" smooth="yes"/>
      <point x="245" y="697"/>
      <point x="106" y="553"/>
      <point x="106" y="360" type="curve" smooth="yes"/>
      <point x="106" y="168"/>
      <point x="246" y="23"/>
      <point x="439" y="23" type="curve" smooth="yes"/>
      <point x="631" y="23"/>
      <point x="770" y="167"/>
    </contour>
    <contour>
      <point x="584" y="288" type="line"/>
      <point x="567" y="203"/>
      <point x="520" y="152"/>
      <point x="436" y="152" type="curve" smooth="yes"/>
      <point x="341" y="152"/>
      <point x="279" y="227"/>
      <point x="279" y="356" type="curve" smooth="yes"/>
      <point x="279" y="374" type="line" smooth="yes"/>
      <point x="279" y="502"/>
      <point x="340" y="577"/>
      <point x="437" y="577" type="curve" smooth="yes"/>
      <point x="523" y="577"/>
      <point x="566" y="527"/>
      <point x="583" y="447" type="curve"/>
      <point x="510" y="428" type="line"/>
      <point x="497" y="489"/>
      <point x="477" y="517"/>
      <point x="437" y="517" type="curve" smooth="yes"/>
      <point x="382" y="517"/>
      <point x="358" y="461"/>
      <point x="358" y="381" type="curve" smooth="yes"/>
      <point x="358" y="349" type="line" smooth="yes"/>
      <point x="358" y="270"/>
      <point x="382" y="213"/>
      <point x="437" y="213" type="curve" smooth="yes"/>
      <point x="480" y="213"/>
      <point x="501" y="244"/>
      <point x="514" y="306" type="curve"/>
    </contour>
  </outline>
</glyph>
<glyph name="cedilla" format="1">
  <advance width="500"/>
  <unicode hex="00B8"/>
  <outline>
    <contour>
      <point x="287" y="-102" type="curve" smooth="yes"/>
      <point x="287" y="-160"/>
      <point x="216" y="-190"/>
      <point x="113" y="-190" type="curve" smooth="yes"/>
      <point x="85" y="-190"/>
      <point x="53" y="-188"/>
      <point x="29" y="-185" type="curve"/>
      <point x="36" y="-158" type="line"/>
      <point x="57" y="-160"/>
      <point x="80" y="-162"/>
      <point x="98" y="-162" type="curve" smooth="yes"/>
      <point x="174" y="-162"/>
      <point x="212" y="-145"/>
      <point x="212" y="-118" type="curve" smooth="yes"/>
      <point x="212" y="-102"/>
      <point x="199" y="-92"/>
      <point x="174" y="-92" type="curve" smooth="yes"/>
      <point x="157" y="-92"/>
      <point x="141" y="-95"/>
      <point x="120" y="-102" type="curve"/>
      <point x="97" y="-84" type="line"/>
      <point x="179" y="0" type="line"/>
      <point x="223" y="0" type="line"/>
      <point x="171" y="-54" type="line"/>
      <point x="185" y="-51"/>
      <point x="199" y="-49"/>
      <point x="214" y="-49" type="curve" smooth="yes"/>
      <point x="260" y="-49"/>
      <point x="287" y="-68"/>
    </contour>
  </outline>
</glyph>
<glyph name="questiondown" format="1">
  <advance width="469"/>
  <unicode hex="00BF"/>
  <outline>
    <contour>
      <point x="419" y="665" type="curve" smooth="yes"/>
      <point x="419" y="627"/>
      <point x="391" y="599"/>
      <point x="353" y="599" type="curve" smooth="yes"/>
      <point x="316" y="599"/>
      <point x="288" y="627"/>
      <point x="288" y="665" type="curve" smooth="yes"/>
      <point x="288" y="702"/>
      <point x="316" y="730"/>
      <point x="353" y="730" type="curve" smooth="yes"/>
      <point x="391" y="730"/>
      <point x="419" y="702"/>
    </contour>
    <contour>
      <point x="416" y="129" type="line"/>
      <point x="356" y="38"/>
      <point x="280" y="-9"/>
      <point x="189" y="-9" type="curve" smooth="yes"/>
      <point x="79" y="-9"/>
      <point x="8" y="49"/>
      <point x="8" y="136" type="curve" smooth="yes"/>
      <point x="8" y="233"/>
      <point x="65" y="288"/>
      <point x="162" y="349" type="curve" smooth="yes"/>
      <point x="236" y="396"/>
      <point x="260" y="423"/>
      <point x="282" y="503" type="curve"/>
      <point x="354" y="503" type="line"/>
      <point x="337" y="386"/>
      <point x="308" y="346"/>
      <point x="221" y="290" type="curve" smooth="yes"/>
      <point x="159" y="250"/>
      <point x="117" y="207"/>
      <point x="117" y="150" type="curve" smooth="yes"/>
      <point x="117" y="101"/>
      <point x="152" y="76"/>
      <point x="200" y="76" type="curve" smooth="yes"/>
      <point x="251" y="76"/>
      <point x="294" y="105"/>
      <point x="342" y="175" type="curve"/>
    </contour>
  </outline>
</glyph>
<glyph name="ae" format="1">
  <advance width="766"/>
  <unicode hex="00E6"/>
  <outline>
    <contour>
      <point x="745" y="362" type="curve" smooth="yes"/>
      <point x="745" y="325"/>
      <point x="738" y="281"/>
      <point x="726" y="239" type="curve"/>
      <point x="423" y="239" type="line"/>
      <point x="420" y="220"/>
      <point x="419" y="201"/>
      <point x="419" y="182" type="curve" smooth="yes"/>
      <point x="419" y="180" type="line" smooth="yes"/>
      <point x="419" y="105"/>
      <point x="454" y="66"/>
      <point x="517" y="66" type="curve" smooth="yes"/>
      <point x="564" y="66"/>
      <point x="610" y="85"/>
      <point x="663" y="117" type="curve"/>
      <point x="681" y="48" type="line"/>
      <point x="620" y="12"/>
      <point x="571" y="-9"/>
      <point x="497" y="-9" type="curve" smooth="yes"/>
      <point x="416" y="-9"/>
      <point x="360" y="27"/>
      <point x="335" y="89" type="curve"/>
      <point x="329" y="89" type="line"/>
      <point x="245" y="17"/>
      <point x="189" y="-7"/>
      <point x="118" y="-7" type="curve" smooth="yes"/>
      <point x="50" y="-7"/>
      <point x="1" y="33"/>
      <point x="1" y="104" type="curve" smooth="yes"/>
      <point x="1" y="219"/>
      <point x="102" y="306"/>
      <point x="340" y="310" type="curve"/>
      <point x="352" y="356" type="line" smooth="yes"/>
      <point x="356" y="370"/>
      <point x="357" y="384"/>
      <point x="357" y="395" type="curve" smooth="yes"/>
      <point x="357" y="435"/>
      <point x="333" y="455"/>
      <point x="281" y="455" type="curve" smooth="yes"/>
      <point x="233" y="455"/>
      <point x="197" y="444"/>
      <point x="130" y="416" type="curve"/>
      <point x="114" y="483" type="line"/>
      <point x="184" y="514"/>
      <point x="237" y="530"/>
      <point x="303" y="530" type="curve" smooth="yes"/>
      <point x="382" y="530"/>
      <point x="417" y="503"/>
      <point x="426" y="445" type="curve"/>
      <point x="432" y="445" type="line"/>
      <point x="475" y="499"/>
      <point x="529" y="534"/>
      <point x="592" y="534" type="curve" smooth="yes"/>
      <point x="705" y="534"/>
      <point x="745" y="456"/>
    </contour>
    <contour>
      <point x="648" y="367" type="curve" smooth="yes"/>
      <point x="648" y="424"/>
      <point x="633" y="469"/>
      <point x="581" y="469" type="curve" smooth="yes"/>
      <point x="519" y="469"/>
      <point x="459" y="391"/>
      <point x="433" y="289" type="curve"/>
      <point x="638" y="289" type="line"/>
      <point x="645" y="319"/>
      <point x="648" y="345"/>
    </contour>
    <contour>
      <point x="330" y="265" type="curve"/>
      <point x="160" y="262"/>
      <point x="104" y="195"/>
      <point x="104" y="127" type="curve" smooth="yes"/>
      <point x="104" y="83"/>
      <point x="131" y="59"/>
      <point x="175" y="59" type="curve" smooth="yes"/>
      <point x="212" y="59"/>
      <point x="253" y="74"/>
      <point x="321" y="138" type="curve"/>
      <point x="320" y="149"/>
      <point x="319" y="161"/>
      <point x="319" y="174" type="curve" smooth="yes"/>
      <point x="319" y="176" type="line" smooth="yes"/>
      <point x="319" y="204"/>
      <point x="323" y="235"/>
    </contour>
  </outline>
</glyph>
<glyph name="divide" format="1">
  <advance width="600"/>
  <unicode hex="00F7"/>
  <outline>
    <contour>
      <point x="390" y="570" type="curve" smooth="yes"/>
      <point x="390" y="532"/>
      <point x="362" y="504"/>
      <point x="323" y="504" type="curve" smooth="yes"/>
      <point x="285" y="504"/>
      <point x="257" y="532"/>
      <point x="257" y="570" type="curve" smooth="yes"/>
      <point x="257" y="608"/>
      <point x="285" y="637"/>
      <point x="323" y="637" type="curve" smooth="yes"/>
      <point x="362" y="637"/>
      <point x="390" y="608"/>
    </contour>
    <contour>
      <point x="582" y="310" type="line"/>
      <point x="65" y="310" type="line"/>
      <point x="65" y="400" type="line"/>
      <point x="582" y="400" type="line"/>
    </contour>
    <contour>
      <point x="390" y="140" type="curve" smooth="yes"/>
      <point x="390" y="102"/>
      <point x="362" y="73"/>
      <point x="323" y="73" type="curve" smooth="yes"/>
      <point x="285" y="73"/>
      <point x="257" y="102"/>
      <point x="257" y="140" type="curve" smooth="yes"/>
      <point x="257" y="178"/>
      <point x="285" y="206"/>
      <point x="323" y="206" type="curve" smooth="yes"/>
      <point x="362" y="206"/>
      <point x="390" y="178"/>
    </contour>
  </outline>
</glyph>
<glyph name="oslash" format="1">
  <advance width="503"/>
  <unicode hex="00F8"/>
  <outline>
    <contour>
      <point x="554" y="619" type="line"/>
      <point x="441" y="474" type="line"/>
      <point x="464" y="444"/>
      <point x="476" y="403"/>
      <point x="476" y="351" type="curve" smooth="yes"/>
      <point x="476" y="349" type="line" smooth="yes"/>
      <point x="476" y="317"/>
      <point x="471" y="279"/>
      <point x="462" y="242" type="curve" smooth="yes"/>
      <point x="426" y="97"/>
      <point x="338" y="-10"/>
      <point x="202" y="-10" type="curve" smooth="yes"/>
      <point x="160" y="-10"/>
      <point x="125" y="0"/>
      <point x="96" y="18" type="curve"/>
      <point x="13" y="-95" type="line"/>
      <point x="-51" y="-95" type="line"/>
      <point x="62" y="50" type="line"/>
      <point x="39" y="81"/>
      <point x="27" y="122"/>
      <point x="27" y="174" type="curve" smooth="yes"/>
      <point x="27" y="176" type="line" smooth="yes"/>
      <point x="27" y="207"/>
      <point x="32" y="246"/>
      <point x="41" y="282" type="curve" smooth="yes"/>
      <point x="76" y="427"/>
      <point x="165" y="534"/>
      <point x="301" y="534" type="curve" smooth="yes"/>
      <point x="343" y="534"/>
      <point x="378" y="524"/>
      <point x="406" y="505" type="curve"/>
      <point x="490" y="619" type="line"/>
    </contour>
    <contour>
      <point x="359" y="441" type="line"/>
      <point x="345" y="460"/>
      <point x="323" y="470"/>
      <point x="297" y="470" type="curve" smooth="yes"/>
      <point x="222" y="470"/>
      <point x="170" y="396"/>
      <point x="142" y="292" type="curve" smooth="yes"/>
      <point x="130" y="245"/>
      <point x="123" y="202"/>
      <point x="123" y="167" type="curve" smooth="yes"/>
      <point x="123" y="165" type="line" smooth="yes"/>
      <point x="123" y="150"/>
      <point x="124" y="137"/>
      <point x="127" y="125" type="curve"/>
    </contour>
    <contour>
      <point x="381" y="357" type="curve" smooth="yes"/>
      <point x="381" y="359" type="line" smooth="yes"/>
      <point x="381" y="374"/>
      <point x="380" y="388"/>
      <point x="377" y="400" type="curve"/>
      <point x="144" y="83" type="line"/>
      <point x="158" y="64"/>
      <point x="179" y="54"/>
      <point x="206" y="54" type="curve" smooth="yes"/>
      <point x="281" y="54"/>
      <point x="333" y="128"/>
      <point x="361" y="233" type="curve" smooth="yes"/>
      <point x="374" y="280"/>
      <point x="381" y="322"/>
    </contour>
  </outline>
</glyph>
<glyph name="dotlessi" format="1">
  <advance width="242"/>
  <unicode hex="0131"/>
  <outline>
    <contour>
      <point x="240" y="524" type="line"/>
      <point x="110" y="0" type="line"/>
      <point x="2" y="0" type="line"/>
      <point x="133" y="524" type="line"/>
    </contour>
  </outline>
</glyph>
<glyph name="lslash" format="1">
  <advance width="316"/>
  <unicode hex="0142"/>
  <outline>
    <contour>
      <point x="345" y="476" type="line"/>
      <point x="323" y="387" type="line"/>
      <point x="232" y="350" type="line"/>
      <point x="145" y="0" type="line"/>
      <point x="41" y="0" type="line"/>
      <point x="118" y="308" type="line"/>
      <point x="27" y="271" type="line"/>
      <point x="49" y="361" type="line"/>
      <point x="140" y="396" type="line"/>
      <point x="224" y="736" type="line"/>
      <point x="333" y="759" type="line"/>
      <point x="254" y="439" type="line"/>
    </contour>
  </outline>
</glyph>
<glyph name="OE" format="1">
  <advance width="893"/>
  <unicode hex="0152"/>
  <outline>
    <contour>
      <point x="961" y="720" type="line"/>
      <point x="939" y="631" type="line"/>
      <point x="630" y="631" type="line"/>
      <point x="576" y="417" type="line"/>
      <point x="818" y="417" type="line"/>
      <point x="797" y="332" type="line"/>
      <point x="555" y="332" type="line"/>
      <point x="495" y="89" type="line"/>
      <point x="816" y="89" type="line"/>
      <point x="794" y="0" type="line"/>
      <point x="321" y="0" type="line" smooth="yes"/>
      <point x="160" y="0"/>
      <point x="55" y="79"/>
      <point x="55" y="248" type="curve" smooth="yes"/>
      <point x="55" y="251" type="line" smooth="yes"/>
      <point x="55" y="292"/>
      <point x="59" y="328"/>
      <point x="69" y="373" type="curve" smooth="yes"/>
      <point x="122" y="602"/>
      <point x="265" y="720"/>
      <point x="466" y="720" type="curve" smooth="yes"/>
    </contour>
    <contour>
      <point x="519" y="632" type="line"/>
      <point x="459" y="632" type="line" smooth="yes"/>
      <point x="332" y="632"/>
      <point x="233" y="548"/>
      <point x="189" y="380" type="curve" smooth="yes"/>
      <point x="179" y="342"/>
      <point x="173" y="297"/>
      <point x="173" y="258" type="curve" smooth="yes"/>
      <point x="173" y="254" type="line" smooth="yes"/>
      <point x="173" y="145"/>
      <point x="237" y="88"/>
      <point x="336" y="88" type="curve" smooth="yes"/>
      <point x="384" y="88" type="line"/>
    </contour>
  </outline>
</glyph>
<glyph name="oe" format="1">
  <advance width="799"/>
  <unicode hex="0153"/>
  <outline>
    <contour>
      <point x="778" y="362" type="curve" smooth="yes"/>
      <point x="778" y="325"/>
      <point x="771" y="281"/>
      <point x="759" y="239" type="curve"/>
      <point x="457" y="239" type="line"/>
      <point x="454" y="220"/>
      <point x="453" y="201"/>
      <point x="453" y="182" type="curve" smooth="yes"/>
      <point x="453" y="180" type="line" smooth="yes"/>
      <point x="453" y="104"/>
      <point x="488" y="66"/>
      <point x="554" y="66" type="curve" smooth="yes"/>
      <point x="596" y="66"/>
      <point x="643" y="85"/>
      <point x="697" y="117" type="curve"/>
      <point x="714" y="48" type="line"/>
      <point x="653" y="12"/>
      <point x="605" y="-9"/>
      <point x="537" y="-9" type="curve" smooth="yes"/>
      <point x="454" y="-9"/>
      <point x="404" y="35"/>
      <point x="391" y="120" type="curve"/>
      <point x="383" y="120" type="line"/>
      <point x="341" y="44"/>
      <point x="277" y="-10"/>
      <point x="190" y="-10" type="curve" smooth="yes"/>
      <point x="99" y="-10"/>
      <point x="27" y="53"/>
      <point x="27" y="174" type="curve" smooth="yes"/>
      <point x="27" y="176" type="line" smooth="yes"/>
      <point x="27" y="207"/>
      <point x="32" y="246"/>
      <point x="41" y="282" type="curve" smooth="yes"/>
      <point x="77" y="429"/>
      <point x="168" y="534"/>
      <point x="291" y="534" type="curve" smooth="yes"/>
      <point x="372" y="534"/>
      <point x="422" y="486"/>
      <point x="436" y="405" type="curve"/>
      <point x="442" y="405" type="line"/>
      <point x="486" y="484"/>
      <point x="546" y="534"/>
      <point x="627" y="534" type="curve" smooth="yes"/>
      <point x="736" y="534"/>
      <point x="778" y="456"/>
    </contour>
    <contour>
      <point x="682" y="367" type="curve" smooth="yes"/>
      <point x="682" y="424"/>
      <point x="665" y="469"/>
      <point x="612" y="469" type="curve" smooth="yes"/>
      <point x="552" y="469"/>
      <point x="493" y="391"/>
      <point x="467" y="289" type="curve"/>
      <point x="671" y="289" type="line"/>
      <point x="678" y="319"/>
      <point x="682" y="345"/>
    </contour>
    <contour>
      <point x="371" y="361" type="curve" smooth="yes"/>
      <point x="371" y="363" type="line" smooth="yes"/>
      <point x="371" y="432"/>
      <point x="342" y="467"/>
      <point x="292" y="467" type="curve" smooth="yes"/>
      <point x="226" y="467"/>
      <point x="177" y="389"/>
      <point x="149" y="279" type="curve" smooth="yes"/>
      <point x="137" y="232"/>
      <point x="131" y="195"/>
      <point x="131" y="164" type="curve" smooth="yes"/>
      <point x="131" y="162" type="line" smooth="yes"/>
      <point x="131" y="90"/>
      <point x="162" y="57"/>
      <point x="204" y="57" type="curve" smooth="yes"/>
      <point x="274" y="57"/>
      <point x="326" y="137"/>
      <point x="354" y="245" type="curve" smooth="yes"/>
      <point x="366" y="292"/>
      <point x="371" y="329"/>
    </contour>
  </outline>
</glyph>
<glyph name="caron" format="1">
  <advance width="500"/>
  <unicode hex="02C7"/>
  <outline>
    <contour>
      <point x="531" y="754" type="line"/>
      <point x="372" y="592" type="line"/>
      <point x="287" y="592" type="line"/>
      <point x="209" y="754" type="line"/>
      <point x="259" y="754" type="line"/>
      <point x="343" y="659" type="line"/>
      <point x="473" y="754" type="line"/>
    </contour>
  </outline>
</glyph>
<glyph name="ring" format="1">
  <advance width="500"/>
  <unicode hex="02DA"/>
  <outline>
    <contour>
      <point x="460" y="681" type="curve" smooth="yes"/>
      <point x="460" y="624"/>
      <point x="417" y="585"/>
      <point x="350" y="585" type="curve" smooth="yes"/>
      <point x="283" y="585"/>
      <point x="240" y="624"/>
      <point x="240" y="681" type="curve" smooth="yes"/>
      <point x="240" y="736"/>
      <point x="283" y="775"/>
      <point x="350" y="775" type="curve" smooth="yes"/>
      <point x="417" y="775"/>
      <point x="460" y="736"/>
    </contour>
    <contour>
      <point x="403" y="681" type="curve" smooth="yes"/>
      <point x="403" y="713"/>
      <point x="381" y="736"/>
      <point x="350" y="736" type="curve" smooth="yes"/>
      <point x="319" y="736"/>
      <point x="296" y="713"/>
      <point x="296" y="681" type="curve" smooth="yes"/>
      <point x="296" y="648"/>
      <point x="318" y="624"/>
      <point x="350" y="624" type="curve" smooth="yes"/>
      <point x="381" y="624"/>
      <point x="403" y="648"/>
    </contour>
  </outline>
</glyph>
<glyph name="ogonek" format="1">
  <advance width="500"/>
  <unicode hex="02DB"/>
  <outline>
    <contour>
      <point x="278" y="-156" type="line"/>
      <point x="232" y="-179"/>
      <point x="186" y="-190"/>
      <point x="145" y="-190" type="curve" smooth="yes"/>
      <point x="84" y="-190"/>
      <point x="50" y="-166"/>
      <point x="50" y="-126" type="curve" smooth="yes"/>
      <point x="50" y="-86"/>
      <point x="89" y="-41"/>
      <point x="175" y="0" type="curve"/>
      <point x="229" y="0" type="line"/>
      <point x="156" y="-45"/>
      <point x="131" y="-82"/>
      <point x="131" y="-108" type="curve" smooth="yes"/>
      <point x="131" y="-130"/>
      <point x="150" y="-144"/>
      <point x="181" y="-144" type="curve" smooth="yes"/>
      <point x="210" y="-144"/>
      <point x="235" y="-138"/>
      <point x="271" y="-125" type="curve"/>
    </contour>
  </outline>
</glyph>
<glyph name="hungarumlaut" format="1">
  <advance width="500"/>
  <unicode hex="02DD"/>
  <outline>
    <contour>
      <point x="569" y="743" type="line"/>
      <point x="393" y="592" type="line"/>
      <point x="327" y="592" type="line"/>
      <point x="443" y="743" type="line"/>
    </contour>
    <contour>
      <point x="377" y="743" type="line"/>
      <point x="202" y="592" type="line"/>
      <point x="135" y="592" type="line"/>
      <point x="252" y="743" type="line"/>
    </contour>
  </outline>
</glyph>
<glyph name="quoteleft" format="1">
  <advance width="210"/>
  <unicode hex="2018"/>
  <unicode hex="02BB"/>
  <outline>
    <contour>
      <point x="256" y="720" type="line"/>
      <point x="231" y="473" type="line"/>
      <point x="171" y="473" type="line"/>
      <point x="141" y="720" type="line"/>
    </contour>
  </outline>
</glyph>
<glyph name="quotesinglbase" format="1">
  <advance width="210"/>
  <unicode hex="201A"/>
  <outline>
    <contour>
      <point x="151" y="130" type="line"/>
      <point x="2" y="-117" type="line"/>
      <point x="-65" y="-117" type="line"/>
      <point x="27" y="130" type="line"/>
    </contour>
  </outline>
</glyph>
<glyph name="quotedblbase" format="1">
  <advance width="386"/>
  <unicode hex="201E"/>
  <outline>
    <contour>
      <point x="327" y="130" type="line"/>
      <point x="178" y="-117" type="line"/>
      <point x="113" y="-117" type="line"/>
      <point x="205" y="130" type="line"/>
    </contour>
    <contour>
      <point x="149" y="130" type="line"/>
      <point x="0" y="-117" type="line"/>
      <point x="-65" y="-117" type="line"/>
      <point x="27" y="130" type="line"/>
    </contour>
  </outline>
</glyph>
<glyph name="fraction" format="1">
  <advance width="385"/>
  <unicode hex="2044"/>
  <outline>
    <contour>
      <point x="538" y="735" type="line"/>
      <point x="-3" y="-15" type="line"/>
      <point x="-105" y="-15" type="line"/>
      <point x="435" y="735" type="line"/>
    </contour>
  </outline>
</glyph>
<glyph name="Euro" format="1">
  <advance width="591"/>
  <unicode hex="20AC"/>
  <outline>
    <contour>
      <point x="618" y="544" type="curve"/>
      <point x="530" y="496" type="line"/>
      <point x="514" y="597"/>
      <point x="477" y="650"/>
      <point x="398" y="650" type="curve" smooth="yes"/>
      <point x="312" y="650"/>
      <point x="244" y="569"/>
      <point x="205" y="458" type="curve"/>
      <point x="422" y="458" type="line"/>
      <point x="408" y="403" type="line"/>
      <point x="188" y="403" type="line"/>
      <point x="179" y="369"/>
      <point x="172" y="338"/>
      <point x="168" y="307" type="curve"/>
      <point x="384" y="307" type="line"/>
      <point x="371" y="252" type="line"/>
      <point x="162" y="252" type="line"/>
      <point x="162" y="245"/>
      <point x="162" y="238"/>
      <point x="162" y="231" type="curve" smooth="yes"/>
      <point x="162" y="228" type="line" smooth="yes"/>
      <point x="162" y="139"/>
      <point x="200" y="69"/>
      <point x="286" y="69" type="curve" smooth="yes"/>
      <point x="359" y="69"/>
      <point x="414" y="119"/>
      <point x="472" y="208" type="curve"/>
      <point x="531" y="150" type="line"/>
      <point x="461" y="45"/>
      <point x="380" y="-12"/>
      <point x="275" y="-12" type="curve" smooth="yes"/>
      <point x="133" y="-12"/>
      <point x="54" y="78"/>
      <point x="54" y="228" type="curve" smooth="yes"/>
      <point x="54" y="232" type="line" smooth="yes"/>
      <point x="54" y="275"/>
      <point x="60" y="326"/>
      <point x="70" y="373" type="curve" smooth="yes"/>
      <point x="117" y="581"/>
      <point x="230" y="732"/>
      <point x="404" y="732" type="curve" smooth="yes"/>
      <point x="532" y="732"/>
      <point x="595" y="664"/>
    </contour>
  </outline>
</glyph>
<glyph name="uni2117" format="1">
  <advance width="828"/>
  <unicode hex="2117"/>
  <outline>
    <contour>
      <point x="810" y="360" type="curve" smooth="yes"/>
      <point x="810" y="149"/>
      <point x="649" y="-12"/>
      <point x="438" y="-12" type="curve" smooth="yes"/>
      <point x="226" y="-12"/>
      <point x="66" y="148"/>
      <point x="66" y="360" type="curve" smooth="yes"/>
      <point x="66" y="571"/>
      <point x="227" y="732"/>
      <point x="439" y="732" type="curve" smooth="yes"/>
      <point x="650" y="732"/>
      <point x="810" y="572"/>
    </contour>
    <contour>
      <point x="770" y="360" type="curve" smooth="yes"/>
      <point x="770" y="552"/>
      <point x="630" y="697"/>
      <point x="438" y="697" type="curve" smooth="yes"/>
      <point x="245" y="697"/>
      <point x="106" y="553"/>
      <point x="106" y="360" type="curve" smooth="yes"/>
      <point x="106" y="168"/>
      <point x="246" y="23"/>
      <point x="439" y="23" type="curve" smooth="yes"/>
      <point x="631" y="23"/>
      <point x="770" y="167"/>
    </contour>
    <contour>
      <point x="606" y="446" type="curve" smooth="yes"/>
      <point x="606" y="363"/>
      <point x="551" y="318"/>
      <point x="454" y="318" type="curve" smooth="yes"/>
      <point x="399" y="318" type="line"/>
      <point x="399" y="155" type="line"/>
      <point x="321" y="155" type="line"/>
      <point x="321" y="569" type="line"/>
      <point x="459" y="569" type="line" smooth="yes"/>
      <point x="550" y="569"/>
      <point x="606" y="526"/>
    </contour>
    <contour>
      <point x="529" y="445" type="curve" smooth="yes"/>
      <point x="529" y="487"/>
      <point x="502" y="511"/>
      <point x="451" y="511" type="curve" smooth="yes"/>
      <point x="397" y="511" type="line"/>
      <point x="397" y="376" type="line"/>
      <point x="453" y="376" type="line" smooth="yes"/>
      <point x="502" y="376"/>
      <point x="529" y="400"/>
    </contour>
  </outline>
</glyph>
<glyph name="trademark" format="1">
  <advance width="780"/>
  <unicode hex="2122"/>
  <outline>
    <contour>
      <point x="835" y="720" type="line"/>
      <point x="751" y="381" type="line"/>
      <point x="692" y="381" type="line"/>
      <point x="761" y="658" type="line"/>
      <point x="758" y="658" type="line"/>
      <point x="600" y="381" type="line"/>
      <point x="537" y="381" type="line"/>
      <point x="517" y="658" type="line"/>
      <point x="515" y="658" type="line"/>
      <point x="445" y="381" type="line"/>
      <point x="388" y="381" type="line"/>
      <point x="472" y="720" type="line"/>
      <point x="567" y="720" type="line"/>
      <point x="586" y="455" type="line"/>
      <point x="588" y="455" type="line"/>
      <point x="740" y="720" type="line"/>
    </contour>
    <contour>
      <point x="414" y="720" type="line"/>
      <point x="400" y="668" type="line"/>
      <point x="299" y="668" type="line"/>
      <point x="227" y="381" type="line"/>
      <point x="164" y="381" type="line"/>
      <point x="235" y="668" type="line"/>
      <point x="133" y="668" type="line"/>
      <point x="146" y="720" type="line"/>
    </contour>
  </outline>
</glyph>
<glyph name="fi" format="1">
  <advance width="596"/>
  <unicode hex="FB01"/>
  <outline>
    <contour>
      <point x="651" y="724" type="line"/>
      <point x="626" y="624" type="line"/>
      <point x="505" y="624" type="line"/>
      <point x="530" y="724" type="line"/>
    </contour>
    <contour>
      <point x="594" y="524" type="line"/>
      <point x="463" y="0" type="line"/>
      <point x="356" y="0" type="line"/>
      <point x="487" y="524" type="line"/>
    </contour>
    <contour>
      <point x="481" y="742" type="curve"/>
      <point x="462" y="667" type="line"/>
      <point x="443" y="676"/>
      <point x="421" y="685"/>
      <point x="389" y="685" type="curve" smooth="yes"/>
      <point x="346" y="685"/>
      <point x="318" y="663"/>
      <point x="303" y="605" type="curve" smooth="yes"/>
      <point x="282" y="521" type="line"/>
      <point x="410" y="521" type="line"/>
      <point x="391" y="447" type="line"/>
      <point x="264" y="447" type="line"/>
      <point x="107" y="-188" type="line"/>
      <point x="1" y="-188" type="line"/>
      <point x="159" y="447" type="line"/>
      <point x="60" y="447" type="line"/>
      <point x="78" y="521" type="line"/>
      <point x="177" y="521" type="line"/>
      <point x="201" y="616" type="line" smooth="yes"/>
      <point x="227" y="719"/>
      <point x="281" y="759"/>
      <point x="380" y="759" type="curve" smooth="yes"/>
      <point x="421" y="759"/>
      <point x="455" y="752"/>
    </contour>
  </outline>
</glyph>
<glyph name="macron" format="1">
  <advance width="500"/>
  <outline>
    <contour>
      <point x="502" y="698" type="line"/>
      <point x="484" y="627" type="line"/>
      <point x="196" y="627" type="line"/>
      <point x="213" y="698" type="line"/>
    </contour>
  </outline>
</glyph>
<glyph name="registered.big" format="1">
  <advance width="828"/>
  <outline>
    <contour>
      <point x="810" y="360" type="curve" smooth="yes"/>
      <point x="810" y="149"/>
      <point x="649" y="-12"/>
      <point x="438" y="-12" type="curve" smooth="yes"/>
      <point x="226" y="-12"/>
      <point x="66" y="148"/>
      <point x="66" y="360" type="curve" smooth="yes"/>
      <point x="66" y="571"/>
      <point x="227" y="732"/>
      <point x="439" y="732" type="curve" smooth="yes"/>
      <point x="650" y="732"/>
      <point x="810" y="572"/>
    </contour>
    <contour>
      <point x="770" y="360" type="curve" smooth="yes"/>
      <point x="770" y="552"/>
      <point x="630" y="697"/>
      <point x="438" y="697" type="curve" smooth="yes"/>
      <point x="245" y="697"/>
      <point x="106" y="553"/>
      <point x="106" y="360" type="curve" smooth="yes"/>
      <point x="106" y="168"/>
      <point x="246" y="23"/>
      <point x="439" y="23" type="curve" smooth="yes"/>
      <point x="631" y="23"/>
      <point x="770" y="167"/>
    </contour>
    <contour>
      <point x="612" y="159" type="line"/>
      <point x="528" y="159" type="line"/>
      <point x="424" y="330" type="line"/>
      <point x="382" y="330" type="line"/>
      <point x="382" y="159" type="line"/>
      <point x="305" y="159" type="line"/>
      <point x="305" y="573" type="line"/>
      <point x="448" y="573" type="line" smooth="yes"/>
      <point x="537" y="573"/>
      <point x="594" y="533"/>
      <point x="594" y="453" type="curve" smooth="yes"/>
      <point x="594" y="392"/>
      <point x="559" y="354"/>
      <point x="501" y="340" type="curve"/>
    </contour>
    <contour>
      <point x="516" y="452" type="curve" smooth="yes"/>
      <point x="516" y="494"/>
      <point x="490" y="516"/>
      <point x="440" y="516" type="curve" smooth="yes"/>
      <point x="380" y="516" type="line"/>
      <point x="380" y="386" type="line"/>
      <point x="441" y="386" type="line" smooth="yes"/>
      <point x="490" y="386"/>
      <point x="516" y="407"/>
    </contour>
  </outline>
</glyph>
<glyph name="registered" format="1">
  <advance width="520"/>
  <outline>
    <contour>
      <point x="543" y="504" type="curve" smooth="yes"/>
      <point x="543" y="377"/>
      <point x="446" y="281"/>
      <point x="319" y="281" type="curve" smooth="yes"/>
      <point x="192" y="281"/>
      <point x="97" y="376"/>
      <point x="97" y="504" type="curve" smooth="yes"/>
      <point x="97" y="630"/>
      <point x="193" y="727"/>
      <point x="320" y="727" type="curve" smooth="yes"/>
      <point x="447" y="727"/>
      <point x="543" y="631"/>
    </contour>
    <contour>
      <point x="516" y="504" type="curve" smooth="yes"/>
      <point x="516" y="617"/>
      <point x="433" y="703"/>
      <point x="319" y="703" type="curve" smooth="yes"/>
      <point x="205" y="703"/>
      <point x="123" y="618"/>
      <point x="123" y="504" type="curve" smooth="yes"/>
      <point x="123" y="390"/>
      <point x="206" y="304"/>
      <point x="320" y="304" type="curve" smooth="yes"/>
      <point x="434" y="304"/>
      <point x="516" y="390"/>
    </contour>
    <contour>
      <point x="429" y="381" type="line"/>
      <point x="373" y="381" type="line"/>
      <point x="310" y="484" type="line"/>
      <point x="288" y="484" type="line"/>
      <point x="288" y="381" type="line"/>
      <point x="237" y="381" type="line"/>
      <point x="237" y="634" type="line"/>
      <point x="326" y="634" type="line" smooth="yes"/>
      <point x="381" y="634"/>
      <point x="416" y="609"/>
      <point x="416" y="559" type="curve" smooth="yes"/>
      <point x="416" y="523"/>
      <point x="395" y="499"/>
      <point x="361" y="490" type="curve"/>
    </contour>
    <contour>
      <point x="365" y="559" type="curve" smooth="yes"/>
      <point x="365" y="583"/>
      <point x="350" y="596"/>
      <point x="321" y="596" type="curve" smooth="yes"/>
      <point x="286" y="596" type="line"/>
      <point x="286" y="520" type="line"/>
      <point x="322" y="520" type="line" smooth="yes"/>
      <point x="350" y="520"/>
      <point x="365" y="533"/>
    </contour>
  </outline>
</glyph>
